<svg width="21" height="25" viewBox="0 0 21 25" fill="none" xmlns="http://www.w3.org/2000/svg">
<circle cx="10.5" cy="7.5" r="7" stroke="#FFE500"/>
<mask id="path-2-inside-1_12_114" fill="white">
<path d="M21 24.5C21 21.7152 19.8938 19.0445 17.9246 17.0754C15.9555 15.1062 13.2848 14 10.5 14C7.71523 14 5.04451 15.1062 3.07538 17.0754C1.10625 19.0445 4.20489e-07 21.7152 0 24.5L10.5 24.5H21Z"/>
</mask>
<path d="M21 24.5C21 21.7152 19.8938 19.0445 17.9246 17.0754C15.9555 15.1062 13.2848 14 10.5 14C7.71523 14 5.04451 15.1062 3.07538 17.0754C1.10625 19.0445 4.20489e-07 21.7152 0 24.5L10.5 24.5H21Z" stroke="#FFE500" stroke-width="2" mask="url(#path-2-inside-1_12_114)"/>
</svg>
