<svg width="431" height="291" viewBox="0 0 431 291" fill="none" xmlns="http://www.w3.org/2000/svg">
<path d="M200.114 145.5L167 101H191.856L212.5 128.802L233.144 101H258L224.97 145.5L258 190H233.144L212.5 162.198L191.856 190H167L200.114 145.5Z" fill="#FFE500"/>
<path d="M115.954 89.7589L212.5 7.86767L309.046 89.7589L331.693 214.316L212.5 256.982L93.3069 214.316L115.954 89.7589Z" stroke="#FFE500" stroke-width="12"/>
<path d="M32.6244 32.6131L53.6917 37.4026L31.9471 133.049L10.8797 128.26L32.6244 32.6131ZM13.8203 166.783C9.77533 165.863 6.70405 164.039 4.60642 161.311C2.53439 158.471 1.90817 155.248 2.72776 151.643C3.52173 148.15 5.47978 145.515 8.60189 143.737C11.8364 141.984 15.4199 141.555 19.3525 142.449C23.285 143.343 26.2184 145.254 28.1524 148.181C30.1988 151.135 30.825 154.358 30.0311 157.85C29.2115 161.455 27.3096 164.103 24.3255 165.794C21.3669 167.373 17.8652 167.702 13.8203 166.783Z" fill="#FFE500"/>
<path d="M370.902 38.5312L391.771 32.9394L417.158 127.684L396.289 133.276L370.902 38.5312ZM416.861 165.979C412.855 167.052 409.287 166.872 406.159 165.438C403.001 163.892 400.944 161.333 399.987 157.762C399.06 154.302 399.562 151.058 401.494 148.029C403.538 144.969 406.507 142.918 410.403 141.874C414.298 140.83 417.784 141.152 420.861 142.839C424.049 144.497 426.106 147.056 427.033 150.515C427.99 154.086 427.543 157.316 425.692 160.204C423.812 162.98 420.868 164.905 416.861 165.979Z" fill="#FFE500"/>
</svg>
