<svg width="312" height="299" viewBox="0 0 312 299" fill="none" xmlns="http://www.w3.org/2000/svg">
<rect x="6" y="6" width="253" height="287" rx="7" stroke="#48267C" stroke-width="12"/>
<path d="M37 36H144.707M37 71.4146H144.707M37 105.649H144.707M37 139.096H239M37 174.117H239M37 214.647H239M37 236.289H97.7578V278H37V236.289ZM162.855 36V124.537H239V36H162.855Z" stroke="#48267C" stroke-width="6"/>
<path d="M284 278H309V260.739M309 260.739H284V281V85.6464M309 260.739V85.6464M284 85.6464L297.125 45L309 85.6464M284 85.6464L297.125 92.5251L309 85.6464" stroke="#48267C" stroke-width="6"/>
</svg>
