<svg width="427" height="130" viewBox="0 0 427 130" fill="none" xmlns="http://www.w3.org/2000/svg">
<path d="M22.5428 1L6.4408 52.5264L4.98478 58.3504C1.70257 71.4793 1.37672 85.1731 4.03073 98.4432L4.16363 99.1077C5.62168 106.398 9.91603 112.81 16.102 116.934L26 122L38.6448 126.596C47.1024 128.71 55.9504 128.71 64.408 126.596L76.5 122L86.9508 116.934C93.1367 112.81 97.4311 106.398 98.8891 99.1077L99.022 98.4432C101.676 85.1731 101.35 71.4793 98.068 58.3505L96.612 52.5264L80.51 1L74.2699 50.9208C74.1777 51.6585 73.3414 52.0412 72.7229 51.6288L67.7228 48.2955C65.5292 46.8331 63.1006 45.7587 60.543 45.1193L57.1047 44.2598C53.4422 43.3441 49.6106 43.3441 45.9481 44.2598L42.5098 45.1193C39.9521 45.7587 37.5235 46.8331 35.33 48.2955L30.3299 51.6288C29.7113 52.0412 28.8751 51.6585 28.7829 50.9208L22.5428 1Z" fill="#FFE600" stroke="black"/>
<path d="M19.3223 84.7303L25.7631 78.2896L32.2039 84.7303M70.8486 84.7303L77.2894 78.2896L83.7302 84.7303M38.6447 104.053L41.9579 107.182C44.2383 109.336 47.7929 109.37 50.1139 107.26L51.4999 106L52.9005 107.273C55.2155 109.378 58.7589 109.35 61.041 107.21L64.4078 104.053" stroke="black"/>
<path d="M114.284 107.064L103.226 44.073C103.13 43.5291 103.494 43.0107 104.038 42.9152L130.488 38.2718C131.032 38.1763 131.55 38.5399 131.646 39.0839L142.704 102.074C142.799 102.618 142.436 103.137 141.892 103.232L115.441 107.876C114.897 107.971 114.379 107.607 114.284 107.064Z" fill="#FFE600" stroke="black"/>
<circle cx="118.332" cy="46.6835" r="2.06105" transform="rotate(-9.95681 118.332 46.6835)" fill="black"/>
<path d="M183.262 100.818C179.446 100.774 176.008 100.152 172.947 98.9547C169.886 97.7569 167.291 96.1154 165.161 94.0303C163.032 91.9452 161.39 89.5052 160.237 86.7103C159.084 83.8711 158.507 80.81 158.507 77.5271C158.507 74.2442 159.084 71.2053 160.237 68.4104C161.39 65.5711 163.032 63.1089 165.161 61.0238C167.335 58.9388 169.93 57.2973 172.947 56.0995C176.008 54.9017 179.446 54.2806 183.262 54.2362H190.449V63.5526H183.528C181.443 63.5969 179.535 63.974 177.805 64.6838C176.119 65.3937 174.655 66.3697 173.413 67.6118C172.215 68.854 171.284 70.318 170.618 72.0038C169.997 73.6896 169.686 75.5307 169.686 77.5271C169.686 79.5234 169.997 81.3645 170.618 83.0503C171.284 84.7362 172.215 86.2002 173.413 87.4423C174.655 88.6845 176.119 89.6605 177.805 90.3703C179.535 91.0801 181.443 91.4572 183.528 91.5016H190.449V100.818H183.262Z" fill="#FFE600"/>
<path d="M210.277 101.616C207.26 101.616 204.598 100.84 202.292 99.2874C199.985 97.7347 198.188 95.6496 196.901 93.0321C195.615 90.3703 194.972 87.3758 194.972 84.0485C194.972 80.5882 195.726 77.5049 197.234 74.7987C198.742 72.0482 200.872 69.8744 203.622 68.2773C206.417 66.6802 209.7 65.8817 213.471 65.8817C217.286 65.8817 220.525 66.6802 223.187 68.2773C225.893 69.83 227.956 71.9816 229.376 74.7322C230.84 77.4384 231.572 80.4773 231.572 83.8489V100.818H221.457V95.3612H221.19C220.569 96.559 219.771 97.646 218.795 98.6219C217.819 99.5536 216.621 100.286 215.201 100.818C213.826 101.35 212.185 101.616 210.277 101.616ZM213.338 92.6994C214.891 92.6994 216.244 92.3223 217.397 91.5681C218.595 90.7696 219.505 89.6827 220.126 88.3074C220.747 86.9322 221.057 85.4016 221.057 83.7158C221.057 82.0744 220.747 80.5882 220.126 79.2573C219.505 77.9264 218.595 76.8838 217.397 76.1296C216.244 75.3311 214.891 74.9318 213.338 74.9318C211.741 74.9318 210.344 75.3311 209.146 76.1296C207.948 76.8838 207.038 77.9264 206.417 79.2573C205.796 80.5882 205.486 82.0744 205.486 83.7158C205.486 85.4016 205.796 86.9322 206.417 88.3074C207.038 89.6827 207.948 90.7696 209.146 91.5681C210.344 92.3223 211.741 92.6994 213.338 92.6994Z" fill="#FFE600"/>
<path d="M239.199 100.818V52.2399H249.514V100.818H239.199Z" fill="#FFE600"/>
<path d="M257.135 100.818V52.2399H267.45V100.818H257.135Z" fill="#FFE600"/>
<path d="M275.271 100.818V54.2362H302.288C304.595 54.2362 306.68 54.7464 308.544 55.7668C310.451 56.7871 311.96 58.2068 313.069 60.0257C314.222 61.8446 314.799 63.9962 314.799 66.4806C314.799 67.9446 314.511 69.342 313.934 70.6729C313.401 72.0038 312.625 73.1795 311.605 74.1998C310.629 75.2202 309.497 76.0409 308.211 76.662C309.719 77.2831 311.05 78.1704 312.204 79.3238C313.401 80.4773 314.333 81.8082 314.999 83.3165C315.708 84.8249 316.063 86.4442 316.063 88.1743C316.063 90.7031 315.464 92.9212 314.267 94.8289C313.113 96.7365 311.56 98.2227 309.608 99.2874C307.656 100.308 305.483 100.818 303.087 100.818H275.271ZM286.451 91.5681H300.159C301.091 91.5681 301.911 91.3463 302.621 90.9027C303.375 90.4591 303.974 89.8601 304.418 89.106C304.861 88.3518 305.083 87.5311 305.083 86.6438C305.083 85.7122 304.861 84.8914 304.418 84.1816C303.974 83.4274 303.375 82.8285 302.621 82.3849C301.911 81.9413 301.091 81.7194 300.159 81.7194H286.451V91.5681ZM286.451 72.8024H299.028C299.915 72.8024 300.691 72.6027 301.357 72.2035C302.067 71.7598 302.621 71.2053 303.02 70.5398C303.42 69.83 303.619 69.0536 303.619 68.2107C303.619 67.3235 303.42 66.5471 303.02 65.8817C302.621 65.1718 302.067 64.6173 301.357 64.218C300.691 63.7744 299.915 63.5526 299.028 63.5526H286.451V72.8024Z" fill="#FFE600"/>
<path d="M336.024 101.616C333.008 101.616 330.346 100.84 328.039 99.2874C325.732 97.7347 323.935 95.6496 322.649 93.0321C321.362 90.3703 320.719 87.3758 320.719 84.0485C320.719 80.5882 321.473 77.5049 322.981 74.7987C324.49 72.0482 326.619 69.8744 329.37 68.2773C332.165 66.6802 335.448 65.8817 339.218 65.8817C343.034 65.8817 346.272 66.6802 348.934 68.2773C351.64 69.83 353.703 71.9816 355.123 74.7322C356.587 77.4384 357.319 80.4773 357.319 83.8489V100.818H347.204V95.3612H346.938C346.317 96.559 345.518 97.646 344.542 98.6219C343.566 99.5536 342.368 100.286 340.949 100.818C339.573 101.35 337.932 101.616 336.024 101.616ZM339.085 92.6994C340.638 92.6994 341.991 92.3223 343.145 91.5681C344.342 90.7696 345.252 89.6827 345.873 88.3074C346.494 86.9322 346.805 85.4016 346.805 83.7158C346.805 82.0744 346.494 80.5882 345.873 79.2573C345.252 77.9264 344.342 76.8838 343.145 76.1296C341.991 75.3311 340.638 74.9318 339.085 74.9318C337.488 74.9318 336.091 75.3311 334.893 76.1296C333.695 76.8838 332.786 77.9264 332.165 79.2573C331.544 80.5882 331.233 82.0744 331.233 83.7158C331.233 85.4016 331.544 86.9322 332.165 88.3074C332.786 89.6827 333.695 90.7696 334.893 91.5681C336.091 92.3223 337.488 92.6994 339.085 92.6994Z" fill="#FFE600"/>
<path d="M381.716 100.818C378.167 100.818 375.017 100.086 372.266 98.6219C369.516 97.1136 367.342 95.095 365.745 92.5663C364.148 89.9932 363.349 87.0652 363.349 83.7823C363.349 80.4994 364.148 77.5936 365.745 75.0649C367.342 72.4918 369.516 70.4511 372.266 68.9427C375.017 67.4344 378.167 66.6802 381.716 66.6802H386.84V75.3976H382.115C380.385 75.3976 378.899 75.7747 377.657 76.5289C376.414 77.2387 375.438 78.2369 374.729 79.5234C374.063 80.7656 373.73 82.1853 373.73 83.7823C373.73 85.3794 374.063 86.8212 374.729 88.1078C375.438 89.35 376.414 90.3481 377.657 91.1023C378.899 91.8121 380.385 92.1671 382.115 92.1671H386.84V100.818H381.716Z" fill="#FFE600"/>
<path d="M392.565 100.818V52.2399H402.88V79.59H407.405L415.191 66.6802H426.703L417.52 80.9209C420.182 82.03 422.245 83.738 423.709 86.0449C425.217 88.3074 425.971 90.9692 425.971 94.0303V100.818H415.59V94.0303C415.59 92.7881 415.28 91.6791 414.658 90.7031C414.082 89.6827 413.305 88.8841 412.329 88.3074C411.353 87.7307 410.244 87.4423 409.002 87.4423H402.88V100.818H392.565Z" fill="#FFE600"/>
</svg>
