<svg width="13" height="21" viewBox="0 0 13 21" fill="none" xmlns="http://www.w3.org/2000/svg">
<path d="M10.9051 5.66197C10.9051 6.31925 10.7999 6.92488 10.5894 7.47887C10.379 8.03286 10.0681 8.58216 9.65673 9.12676C9.2454 9.67136 8.80059 10.2207 8.3223 10.7746C7.85357 11.3286 7.2844 12.0704 6.61479 13C5.94518 13.9296 5.3234 14.9155 4.74945 15.9577H6.88742C7.41354 15.0751 8.00184 14.2066 8.65232 13.3521C9.31236 12.4977 9.87675 11.7934 10.3455 11.2394C10.8142 10.6854 11.2638 10.1127 11.6943 9.52113C12.1247 8.92019 12.45 8.30047 12.67 7.66197C12.89 7.02347 13 6.33333 13 5.59155C13 4.88732 12.8756 4.21596 12.6269 3.57746C12.3878 2.92958 12.0243 2.33333 11.5364 1.78873C11.0486 1.24413 10.3837 0.812207 9.54194 0.492958C8.70015 0.164319 7.72921 0 6.62914 0C3.66372 0 1.45401 1.13146 0 3.39437L1.42053 4.42253C2.66409 2.51643 4.35725 1.56338 6.5 1.56338C7.30353 1.56338 8.00184 1.68075 8.59492 1.91549C9.19757 2.15023 9.65673 2.47418 9.97241 2.88732C10.2976 3.29108 10.532 3.723 10.6755 4.1831C10.8285 4.64319 10.9051 5.13615 10.9051 5.66197ZM4.51987 21H6.87307V17.9718H4.51987V21Z" fill="#FFE500"/>
</svg>
