<svg width="25" height="25" viewBox="0 0 25 25" fill="none" xmlns="http://www.w3.org/2000/svg">
<path fill-rule="evenodd" clip-rule="evenodd" d="M15.8964 4.30057L12.5 0L9.10364 4.30057L3.66113 3.66116L4.30054 9.10368L0 12.5L4.30054 15.8963L3.66113 21.3388L9.10364 20.6994L12.5 25L15.8964 20.6994L21.3389 21.3388L20.6995 15.8963L25 12.5L20.6995 9.10368L21.3389 3.66116L15.8964 4.30057ZM13 17C15.2091 17 17 15.2091 17 13C17 10.7909 15.2091 9 13 9C10.7909 9 9 10.7909 9 13C9 15.2091 10.7909 17 13 17Z" fill="#FFE500"/>
</svg>
