<svg width="255" height="160" viewBox="0 0 255 160" fill="none" xmlns="http://www.w3.org/2000/svg">
<circle cx="48.2324" cy="81" r="31" stroke="#48267C" stroke-width="8"/>
<circle cx="204.232" cy="81" r="31" stroke="#48267C" stroke-width="8"/>
<path d="M161.232 38.5C161.232 57.5053 145.611 73 126.232 73C106.854 73 91.2324 57.5053 91.2324 38.5C91.2324 19.4947 106.854 4 126.232 4C145.611 4 161.232 19.4947 161.232 38.5Z" stroke="#48267C" stroke-width="8"/>
<mask id="path-4-inside-1_12_69" fill="white">
<path d="M96.2324 160C96.2324 147.27 91.1753 135.061 82.1735 126.059C73.1718 117.057 60.9628 112 48.2324 112C35.502 112 23.293 117.057 14.2913 126.059C5.28955 135.061 0.232424 147.27 0.232422 160L48.2324 160H96.2324Z"/>
</mask>
<path d="M96.2324 160C96.2324 147.27 91.1753 135.061 82.1735 126.059C73.1718 117.057 60.9628 112 48.2324 112C35.502 112 23.293 117.057 14.2913 126.059C5.28955 135.061 0.232424 147.27 0.232422 160L48.2324 160H96.2324Z" stroke="#48267C" stroke-width="16" mask="url(#path-4-inside-1_12_69)"/>
<mask id="path-5-inside-2_12_69" fill="white">
<path d="M252.232 160C252.232 147.27 247.175 135.061 238.174 126.059C229.172 117.057 216.963 112 204.232 112C191.502 112 179.293 117.057 170.291 126.059C161.29 135.061 156.232 147.27 156.232 160L204.232 160H252.232Z"/>
</mask>
<path d="M252.232 160C252.232 147.27 247.175 135.061 238.174 126.059C229.172 117.057 216.963 112 204.232 112C191.502 112 179.293 117.057 170.291 126.059C161.29 135.061 156.232 147.27 156.232 160L204.232 160H252.232Z" stroke="#48267C" stroke-width="16" mask="url(#path-5-inside-2_12_69)"/>
<mask id="path-6-inside-3_12_69" fill="white">
<path d="M179.232 126C179.232 111.944 173.649 98.4628 163.709 88.5233C153.77 78.5839 140.289 73 126.232 73C112.176 73 98.6952 78.5839 88.7558 88.5233C78.8163 98.4628 73.2324 111.944 73.2324 126L126.232 126H179.232Z"/>
</mask>
<path d="M179.232 126C179.232 111.944 173.649 98.4628 163.709 88.5233C153.77 78.5839 140.289 73 126.232 73C112.176 73 98.6952 78.5839 88.7558 88.5233C78.8163 98.4628 73.2324 111.944 73.2324 126L126.232 126H179.232Z" stroke="#48267C" stroke-width="16" mask="url(#path-6-inside-3_12_69)"/>
</svg>
