<svg width="38" height="39" viewBox="0 0 38 39" fill="none" xmlns="http://www.w3.org/2000/svg">
<path d="M26.8056 38.9999H11.1428C8.18868 38.9963 5.35656 37.8212 3.26765 35.7323C1.17875 33.6434 0.00361365 30.8112 0 27.8571V11.1428C0.00361365 8.18868 1.17875 5.35655 3.26765 3.26765C5.35656 1.17874 8.18868 0.00361365 11.1428 0H26.8056C29.7598 0.00361365 32.5919 1.17874 34.6808 3.26765C36.7697 5.35655 37.9448 8.18868 37.9484 11.1428V27.8571C37.9448 30.8112 36.7697 33.6434 34.6808 35.7323C32.5919 37.8212 29.7598 38.9963 26.8056 38.9999V38.9999ZM11.1428 2.86081C8.94623 2.86262 6.84001 3.73555 5.28614 5.28815C3.73227 6.84074 2.8576 8.94624 2.85399 11.1428V27.8571C2.8576 30.0543 3.73204 32.1605 5.28572 33.7142C6.8394 35.2679 8.94561 36.1423 11.1428 36.1459H26.8056C29.0022 36.1423 31.1077 35.2677 32.6603 33.7138C34.2129 32.1599 35.0858 30.0537 35.0876 27.8571V11.1428C35.0858 8.94686 34.2127 6.84135 32.6599 5.28856C31.1071 3.73577 29.0016 2.86262 26.8056 2.86081H11.1428Z" fill="white"/>
<path d="M18.9745 29.8102C16.2274 29.8066 13.594 28.7133 11.6521 26.7701C9.7103 24.827 8.61869 22.1929 8.61688 19.4458C8.62011 18.0457 8.90257 16.6603 9.44772 15.3707C9.99287 14.0811 10.7898 12.9132 11.7918 11.9353C12.7432 10.9988 13.8742 10.2644 15.1168 9.77628C16.3594 9.28816 17.6879 9.05641 19.0223 9.09495C22.2518 9.19053 24.9283 10.2761 26.765 12.2357C27.6501 13.2166 28.3326 14.3627 28.7732 15.6083C29.2138 16.8539 29.4037 18.1743 29.3322 19.4935C29.2919 22.2332 28.1934 24.8512 26.2665 26.7992C25.3105 27.7583 24.1738 28.5182 22.9221 29.035C21.6704 29.5519 20.3287 29.8154 18.9745 29.8102V29.8102ZM18.7356 12.5703C17.0449 12.5756 15.4241 13.2451 14.2224 14.4342C13.5539 15.0867 13.0223 15.866 12.6589 16.7266C12.2954 17.5871 12.1074 18.5116 12.1058 19.4458C12.1081 20.3478 12.288 21.2405 12.6352 22.073C12.9825 22.9055 13.4903 23.6614 14.1297 24.2977C14.7691 24.9339 15.5276 25.4379 16.3618 25.7811C17.196 26.1242 18.0896 26.2996 18.9916 26.2974C19.8936 26.2951 20.7863 26.1152 21.6188 25.768C22.4513 25.4207 23.2073 24.9129 23.8435 24.2735C24.4797 23.6341 24.9838 22.8757 25.3269 22.0415C25.67 21.2073 25.8455 20.3136 25.8432 19.4116V19.4116C25.9538 17.6664 25.3696 15.9483 24.2182 14.6322C23.0302 13.3623 21.2004 12.659 18.9199 12.5839L18.7356 12.5703Z" fill="white"/>
<path d="M29.5839 11.2107C30.9188 11.2107 32.001 10.1286 32.001 8.79373C32.001 7.45885 30.9188 6.37671 29.5839 6.37671C28.2491 6.37671 27.1669 7.45885 27.1669 8.79373C27.1669 10.1286 28.2491 11.2107 29.5839 11.2107Z" fill="white"/>
</svg>
