<svg width="38" height="31" viewBox="0 0 38 31" fill="none" xmlns="http://www.w3.org/2000/svg">
<path fill-rule="evenodd" clip-rule="evenodd" d="M3.49204 13.3453C13.4241 8.97048 20.0471 6.08634 23.3609 4.69286C32.8225 0.7142 34.7885 0.0230651 36.07 0.00024333C36.3518 -0.00477605 36.982 0.0658399 37.3902 0.400706C37.7349 0.683461 37.8297 1.06542 37.8751 1.3335C37.9204 1.60159 37.977 2.21229 37.932 2.68947C37.4193 8.13595 35.2007 21.3531 34.0721 27.4533C33.5945 30.0345 32.6541 30.8999 31.7437 30.9846C29.7652 31.1687 28.2628 29.6627 26.3465 28.3928C23.3479 26.4056 21.6539 25.1685 18.7432 23.2293C15.3795 20.9883 17.5601 19.7566 19.4771 17.7436C19.9788 17.2168 28.6961 9.20056 28.8648 8.47336C28.8859 8.38241 28.9055 8.0434 28.7063 7.86439C28.5071 7.68537 28.2131 7.74659 28.0009 7.79527C27.7002 7.86428 22.9098 11.0653 13.63 17.3983C12.2703 18.3423 11.0387 18.8022 9.93523 18.7781C8.71876 18.7515 6.37875 18.0827 4.63919 17.511C2.50556 16.8098 0.809786 16.4391 0.95745 15.2483C1.03436 14.628 1.87923 13.9937 3.49204 13.3453Z" fill="white"/>
</svg>
