<svg width="143" height="51" viewBox="0 0 143 51" fill="none" xmlns="http://www.w3.org/2000/svg">
<rect x="1.85187" y="47.2223" width="4.16667" height="20.3704" rx="2.08333" transform="rotate(-90 1.85187 47.2223)" fill="white"/>
<rect x="2.31488" y="7.87036" width="4.16667" height="20.3704" rx="2.08333" transform="rotate(-90 2.31488 7.87036)" fill="white"/>
<rect y="43.9814" width="5.55556" height="25" rx="2.77778" transform="rotate(-90 0 43.9814)" fill="white"/>
<rect y="12.9629" width="5.55556" height="25" rx="2.77778" transform="rotate(-90 0 12.9629)" fill="white"/>
<rect y="38.8889" width="5.09259" height="25" rx="2.5463" transform="rotate(-90 0 38.8889)" fill="white"/>
<rect y="17.5925" width="5.55556" height="25" rx="2.77778" transform="rotate(-90 0 17.5925)" fill="white"/>
<rect x="10.1854" y="50.9259" width="50.9259" height="3.24074" rx="1.62037" transform="rotate(-90 10.1854 50.9259)" fill="white"/>
<path d="M36.6238 35L36.2038 32.42L38.3038 32V17.21L36.2638 17V14.27H43.7638C45.1838 14.27 46.4238 14.43 47.4838 14.75C48.5438 15.07 49.4238 15.53 50.1238 16.13C50.8238 16.73 51.3438 17.46 51.6838 18.32C52.0438 19.16 52.2238 20.11 52.2238 21.17C52.2238 22.59 51.9038 23.84 51.2638 24.92C50.6438 25.98 49.6938 26.81 48.4138 27.41C47.1538 28.01 45.5638 28.31 43.6438 28.31H42.2338V31.82L46.7938 32.51L46.6138 35H36.6238ZM42.2338 25.16H42.5038C44.0638 25.14 45.2438 24.97 46.0438 24.65C46.8438 24.31 47.3838 23.84 47.6638 23.24C47.9638 22.62 48.1138 21.9 48.1138 21.08C48.1138 19.96 47.7738 19.07 47.0938 18.41C46.4138 17.75 45.3438 17.42 43.8838 17.42H42.2338V25.16ZM62.4826 35.12C61.0626 35.12 59.8026 34.87 58.7026 34.37C57.6226 33.85 56.7126 33.12 55.9726 32.18C55.2326 31.24 54.6726 30.13 54.2926 28.85C53.9126 27.57 53.7226 26.17 53.7226 24.65C53.7226 23.11 53.9126 21.71 54.2926 20.45C54.6726 19.17 55.2326 18.07 55.9726 17.15C56.7126 16.21 57.6226 15.49 58.7026 14.99C59.8026 14.47 61.0626 14.21 62.4826 14.21C63.9026 14.21 65.1526 14.47 66.2326 14.99C67.3126 15.49 68.2226 16.21 68.9626 17.15C69.7026 18.07 70.2626 19.17 70.6426 20.45C71.0226 21.71 71.2126 23.11 71.2126 24.65C71.2126 26.17 71.0226 27.57 70.6426 28.85C70.2626 30.13 69.7026 31.24 68.9626 32.18C68.2226 33.12 67.3126 33.85 66.2326 34.37C65.1526 34.87 63.9026 35.12 62.4826 35.12ZM62.4826 31.97C63.1826 31.97 63.8126 31.79 64.3726 31.43C64.9526 31.05 65.4426 30.53 65.8426 29.87C66.2426 29.21 66.5526 28.44 66.7726 27.56C66.9926 26.68 67.1026 25.73 67.1026 24.71C67.1026 23.69 66.9926 22.74 66.7726 21.86C66.5526 20.96 66.2426 20.18 65.8426 19.52C65.4426 18.84 64.9526 18.31 64.3726 17.93C63.8126 17.55 63.1826 17.36 62.4826 17.36C61.7626 17.36 61.1126 17.55 60.5326 17.93C59.9726 18.31 59.4926 18.84 59.0926 19.52C58.6926 20.18 58.3826 20.96 58.1626 21.86C57.9426 22.74 57.8326 23.69 57.8326 24.71C57.8326 25.73 57.9426 26.68 58.1626 27.56C58.3826 28.44 58.6926 29.21 59.0926 29.87C59.4926 30.53 59.9726 31.05 60.5326 31.43C61.1126 31.79 61.7626 31.97 62.4826 31.97ZM73.6564 35L73.2364 32.36L75.1864 31.97V17.15L73.2964 16.91V14.27H78.6364C81.0764 14.27 83.1564 14.65 84.8764 15.41C86.6164 16.15 87.9464 17.27 88.8664 18.77C89.7864 20.25 90.2464 22.12 90.2464 24.38C90.2464 26.62 89.8564 28.54 89.0764 30.14C88.3164 31.72 87.1664 32.93 85.6264 33.77C84.1064 34.59 82.2064 35 79.9264 35H73.6564ZM79.6864 31.88C80.7464 31.88 81.6764 31.72 82.4764 31.4C83.2764 31.08 83.9464 30.61 84.4864 29.99C85.0264 29.37 85.4364 28.6 85.7164 27.68C85.9964 26.74 86.1364 25.67 86.1364 24.47C86.1364 22.91 85.8664 21.61 85.3264 20.57C84.8064 19.53 84.0364 18.75 83.0164 18.23C81.9964 17.71 80.7464 17.44 79.2664 17.42H79.1164V31.85L79.6864 31.88ZM98.375 35L92.075 17.15L90.995 16.94V14.27H98.195L98.615 16.64L96.305 17.15L101.015 31.1L105.665 17.15L102.935 16.61V14.27H109.925V16.94L108.815 17.15L102.605 35H98.375ZM108.781 35L108.391 32.66L110.041 32.12L115.981 14.27H119.701L125.731 32.12L127.111 32.66L126.811 35H119.011V32.75L121.411 32.12L120.331 28.46H114.451L113.311 32.24L115.951 32.72V35H108.781ZM115.381 25.31H119.011L117.421 18.53L115.381 25.31ZM128.764 35L128.344 32.36L130.294 31.97V17.15L128.404 16.94V14.27H136.024L136.474 17L134.224 17.42V31.85H139.294L140.404 28.88H142.774L142.144 35H128.764Z" fill="white"/>
</svg>
